<!--?xml version="1.0" encoding="utf-8"?-->
<!-- Generator: Adobe Illustrator 18.1.1, SVG Export Plug-In . SVG Version: 6.00 Build 0)  -->

<svg version="1.1" id="_x32_" xmlns="http://www.w3.org/2000/svg" xmlns:xlink="http://www.w3.org/1999/xlink" x="0px" y="0px" viewBox="0 0 512 512" style="width: 256px; height: 256px; opacity: 1;" xml:space="preserve">
<style type="text/css">
	.st0{fill:#4B4B4B;}
</style>
<g>
	<path class="st0" d="M413.649,149.287h-23.917c-4.876,0-8.848,3.964-8.848,8.847v32.757c0,0-51.993,0-124.806,0h-0.158
		c-72.813,0-124.82,0-124.82,0v-32.757c0-4.883-3.958-8.847-8.847-8.847H98.351c-4.89,0-8.847,3.964-8.847,8.847
		c0,0,0,47.017,0,70.425c0,23.394,23.143,28.599,30.556,28.599c20.433,0,24.462-4.187,45.554-8.022
		c18.168-3.305,53.943,14.834,49.928,49.986c-12.188,11.026-19.86,26.985-19.86,44.716c0,33.317,27.015,60.316,60.31,60.316
		c33.309,0,60.309-27,60.309-60.316c0-17.73-7.657-33.69-19.859-44.709c-4.001-35.158,31.76-53.297,49.927-49.992
		c21.093,3.835,25.122,8.022,45.57,8.022c7.413,0,30.556-5.205,30.556-28.599c0-23.408,0-70.425,0-70.425
		C422.496,153.251,418.525,149.287,413.649,149.287z M255.993,380.222c-20.104,0-36.378-16.282-36.378-36.385
		c0-20.082,16.274-36.385,36.378-36.385c20.103,0,36.392,16.303,36.392,36.385C292.385,363.94,276.096,380.222,255.993,380.222z" style="fill: rgb(75, 75, 75);"></path>
	<path class="st0" d="M196.831,151.071c20.418,0,23.329-13.12,23.329-18.956c0-5.836-2.911-18.956-23.329-18.956
		c-14.066,0-52.38,5.621-74.835,9.112c0.258-0.832,0.43-1.714,0.43-2.732c0-6.452-5.52-11.694-12.345-11.694
		c-6.826,0-12.36,5.241-12.36,11.694c0,1.018,0.187,1.9,0.444,2.732c-22.455-3.492-60.768-9.112-74.834-9.112
		C2.911,113.16,0,126.28,0,132.116c0,5.836,2.911,18.956,23.33,18.956c17.106,0,70.06-8.316,86.75-11.005
		C126.756,142.755,179.724,151.071,196.831,151.071z" style="fill: rgb(75, 75, 75);"></path>
	<path class="st0" d="M488.67,113.16c-14.08,0-52.394,5.621-74.849,9.112c0.258-0.824,0.445-1.714,0.445-2.732
		c0-6.452-5.535-11.694-12.36-11.694c-6.811,0-12.346,5.241-12.346,11.694c0,1.018,0.186,1.9,0.445,2.732
		c-22.455-3.492-60.783-9.112-74.849-9.112c-20.404,0-23.315,13.12-23.315,18.956c0,5.836,2.911,18.956,23.315,18.956
		c17.12,0,70.074-8.316,86.764-11.005c16.676,2.688,69.63,11.005,86.75,11.005c20.404,0,23.33-13.12,23.33-18.956
		C512,126.28,509.074,113.16,488.67,113.16z" style="fill: rgb(75, 75, 75);"></path>
	<path class="st0" d="M266.059,347.744c-7.098,0-12.848-5.75-12.848-12.848c0-5.32,3.226-9.88,7.829-11.83
		c-1.635-0.394-3.298-0.66-5.047-0.66c-11.83,0-21.437,9.6-21.437,21.43c0,11.844,9.607,21.437,21.437,21.437
		c11.829,0,21.436-9.593,21.436-21.437c0-0.889-0.158-1.736-0.258-2.595C274.949,345.106,270.834,347.744,266.059,347.744z" style="fill: rgb(75, 75, 75);"></path>
</g>
</svg>
